<?xml version="1.0" encoding="UTF-8" standalone="no"?>
<!-- Created with Inkscape (http://www.inkscape.org/) -->

<svg
   xmlns:dc="http://purl.org/dc/elements/1.1/"
   xmlns:cc="http://creativecommons.org/ns#"
   xmlns:rdf="http://www.w3.org/1999/02/22-rdf-syntax-ns#"
   xmlns:svg="http://www.w3.org/2000/svg"
   xmlns="http://www.w3.org/2000/svg"
   xmlns:sodipodi="http://sodipodi.sourceforge.net/DTD/sodipodi-0.dtd"
   xmlns:inkscape="http://www.inkscape.org/namespaces/inkscape"
   width="298.77252mm"
   height="387.21033mm"
   viewBox="0 0 298.77252 387.21033"
   version="1.1"
   id="svg8"
   inkscape:version="0.92.4 (fd57863, 2020-04-02)"
   sodipodi:docname="logo4.svg">
  <defs
     id="defs2" />
  <sodipodi:namedview
     id="base"
     pagecolor="#ffffff"
     bordercolor="#666666"
     borderopacity="1.0"
     inkscape:pageopacity="0.0"
     inkscape:pageshadow="2"
     inkscape:zoom="0.1767767"
     inkscape:cx="827.88471"
     inkscape:cy="672.56194"
     inkscape:document-units="mm"
     inkscape:current-layer="layer1"
     showgrid="false"
     inkscape:window-width="1850"
     inkscape:window-height="1012"
     inkscape:window-x="70"
     inkscape:window-y="27"
     inkscape:window-maximized="1"
     fit-margin-top="0"
     fit-margin-left="0"
     fit-margin-right="0"
     fit-margin-bottom="0" />
  <metadata
     id="metadata5">
    <rdf:RDF>
      <cc:Work
         rdf:about="">
        <dc:format>image/svg+xml</dc:format>
        <dc:type
           rdf:resource="http://purl.org/dc/dcmitype/StillImage" />
        <dc:title></dc:title>
      </cc:Work>
    </rdf:RDF>
  </metadata>
  <g
     inkscape:label="Layer 1"
     inkscape:groupmode="layer"
     id="layer1"
     transform="translate(30.443218,5.4448023)">
    <g
       id="g167"
       transform="matrix(1.8818852,0,0,1.8818852,-435.30173,-672.34759)"
       style="fill:#00aad4;fill-opacity:1">
      <path
         style="fill:#00aad4;stroke-width:0.25400001;fill-opacity:1"
         d="m 539.06388,687.86431 c -1.996,-0.52314 -5.0167,-1.77828 -6.43661,-2.6745 -2.05651,-1.29804 -3.85346,-4.29222 -4.32199,-7.20156 -0.39785,-2.4704 -0.12152,-2.8129 5.09473,-6.31462 4.49857,-3.01993 9.8337,-8.98636 13.9505,-15.60129 5.34052,-8.58123 9.78476,-18.00326 13.05468,-27.67667 1.28597,-3.80429 1.34071,-3.90881 2.33373,-4.45659 1.13837,-0.62796 17.53285,-5.41741 18.544,-5.41741 0.35588,0 0.70513,0.15136 0.77612,0.33637 0.18088,0.4714 -2.10426,7.24685 -3.82719,11.34763 -5.38554,12.81821 -13.43073,25.60973 -25.13183,39.95852 -0.7766,0.95235 -1.41201,1.83817 -1.41201,1.9685 0,0.41912 1.61478,0.25385 3.84952,-0.39403 10.73265,-3.1115 26.60831,-12.5762 39.58448,-23.59935 3.94335,-3.34982 10.69988,-10.24346 13.6461,-13.92301 6.26491,-7.82431 9.32342,-13.43644 14.12331,-25.91511 5.3243,-13.84203 10.71093,-24.52695 17.44838,-34.61052 5.74154,-8.5931 11.88855,-15.9512 16.83004,-20.14596 5.49232,-4.66232 12.57994,-8.31817 19.56768,-10.09312 3.52247,-0.89477 3.47449,-0.87544 3.47449,-1.39878 0,-0.27681 -0.94468,-1.67259 -2.09931,-3.10172 -9.16272,-11.34118 -12.10729,-23.44382 -9.17936,-37.72865 2.19731,-10.72024 7.35066,-21.23401 16.77863,-34.2314 4.93202,-6.79928 6.337,-8.87682 8.22871,-12.16791 7.88249,-13.71333 10.04918,-28.45502 5.94109,-40.42187 -1.32997,-3.87414 -4.64876,-9.84072 -5.39366,-9.69678 -0.26173,0.0506 -0.84161,1.39995 -1.72461,4.01319 -4.78117,14.14987 -17.13456,30.58609 -32.7848,43.62028 -1.41917,1.18195 -2.64457,2.39466 -2.72308,2.6949 -0.0785,0.30025 0.36502,2.37514 0.98562,4.61086 7.96488,28.69318 5.00509,59.1217 -8.36331,85.97996 -5.97192,11.99815 -13.07465,21.85043 -22.61486,31.36943 -6.24048,6.22661 -11.46203,10.4932 -18.80606,15.3667 -3.81958,2.53466 -5.8453,3.56418 -9.41664,4.78566 -6.196,2.11923 -44.89791,13.30937 -49.63836,14.35232 -4.01742,0.88385 -6.61676,1.02393 -12.81042,0.6903 -15.03087,-0.80963 -28.69217,-3.95519 -42.12572,-9.69968 -34.9161,-14.93085 -60.65791,-45.53105 -69.63422,-82.77662 -3.74666,-15.5461 -4.28153,-32.68474 -1.51393,-48.51011 0.95969,-5.4876 1.57722,-7.91815 2.17282,-8.55214 0.35093,-0.37355 2.56662,-1.23944 6.67235,-2.60756 3.38083,-1.12656 6.34318,-2.0483 6.58301,-2.0483 0.76508,0 0.75396,0.71353 -0.0546,3.50099 -1.75747,6.05893 -3.09268,12.8231 -3.89659,19.74001 -0.50619,4.35532 -0.42215,17.65677 0.1404,22.22247 1.68113,13.64421 5.17497,25.30398 11.07489,36.95953 5.54331,10.95106 12.26704,20.08104 21.15217,28.72194 8.09851,7.8759 16.46398,13.80759 26.61382,18.87093 11.60612,5.78983 23.12903,9.25045 36.068,10.83213 4.64149,0.56739 15.41592,0.77778 20.21522,0.39472 30.36393,-2.42339 57.8686,-17.03804 76.56983,-40.68552 12.84427,-16.24144 20.70176,-35.897 22.72492,-56.84649 0.43734,-4.52839 0.49573,-14.46454 0.11133,-18.94571 -2.79999,-32.64309 -20.38835,-62.46511 -47.4853,-80.51388 -24.28253,-16.17413 -53.57023,-21.81798 -82.2597,-15.85174 -27.0123,5.61746 -51.49958,22.13537 -66.98476,45.18462 -1.26703,1.88595 -2.72445,4.13055 -3.23869,4.98799 -0.51425,0.85744 -1.24376,1.7613 -1.62114,2.00857 -0.78577,0.51486 -13.07421,4.60764 -14.53621,4.84142 -0.555,0.0887 -1.03565,0.0448 -1.12704,-0.10308 -0.35887,-0.58067 3.56054,-8.61886 6.96042,-14.2749 2.30253,-3.83048 5.2344,-8.07657 8.04747,-11.65476 1.03072,-1.31107 2.02508,-2.68267 2.20968,-3.048 0.1846,-0.36533 0.9844,-3.06454 1.77732,-5.99824 0.79293,-2.9337 2.34133,-8.02684 3.44089,-11.3181 15.42986,-46.18536 42.99175,-75.74828 82.78874,-88.79934 11.82558,-3.87808 28.89684,-6.87215 40.03202,-7.02106 2.68653,-0.0359 3.19862,0.028 4.318,0.53938 4.2659,1.94868 5.42384,6.62078 2.62951,10.6098 -0.55392,0.79077 -3.17104,3.98694 -5.81579,7.10261 -10.47181,12.33637 -21.51471,26.55343 -27.7091,35.67371 -5.01943,7.39035 -9.26349,14.79747 -8.94864,15.61796 0.0927,0.24167 1.08786,0.37909 3.60307,0.49758 18.76273,0.8839 34.81365,4.945 50.43828,12.76154 23.27496,11.6438 41.934,30.17863 53.50741,53.1512 0.85806,1.70324 1.71343,3.15563 1.90079,3.22752 0.53101,0.20377 0.84993,-0.0528 5.104,-4.10583 12.17434,-11.59905 20.26191,-22.65921 24.05438,-32.89564 1.83683,-4.95788 1.87559,-7.8815 0.16353,-12.33227 -1.2716,-3.30572 -1.35461,-4.52819 -0.43071,-6.34357 1.21059,-2.37866 3.14574,-3.53327 5.91215,-3.52745 2.31176,0.005 3.65118,0.65095 7.22412,3.48473 7.24949,5.74969 12.61105,12.13417 16.38351,19.50928 4.26529,8.33861 6.2311,16.70336 6.23519,26.5315 0.003,7.56373 -0.89403,13.49725 -3.07071,20.30845 -2.31633,7.24822 -5.04667,12.61257 -10.7949,21.209 -5.52732,8.26605 -7.29295,11.21356 -9.77351,16.31578 -5.78851,11.9062 -7.14639,22.51721 -4.06027,31.72865 2.36891,7.07073 7.53636,14.25605 15.21468,21.15594 3.97233,3.56961 9.34169,7.80113 13.42451,10.57966 1.85102,1.25971 3.3655,2.37116 3.3655,2.46989 0,0.0988 -3.17183,0.182 -7.0485,0.18502 -7.33631,0.006 -11.70849,0.3477 -17.9258,1.40215 -19.75124,3.34981 -31.34311,11.9267 -41.8153,30.93946 -3.45156,6.26646 -6.33047,13.18288 -10.01855,24.06897 -1.3207,3.89831 -2.96596,8.42033 -3.65613,10.0489 -7.02625,16.57962 -22.76094,31.77464 -49.45672,47.76043 -12.53904,7.50855 -26.52857,14.38712 -35.22302,17.31897 -6.49348,2.18965 -11.99,2.75948 -16.13611,1.67282 z M 472.6974,393.21166 c 11.35578,-7.99886 24.94395,-14.32649 38.64726,-17.99694 3.1925,-0.85511 10.62739,-2.37534 13.85605,-2.83317 1.24298,-0.17626 2.21687,-0.45167 2.40692,-0.68067 0.17557,-0.21154 0.67981,-1.48478 1.12054,-2.82942 2.9892,-9.11986 12.87297,-24.09991 29.93976,-45.37731 4.14871,-5.17226 6.17736,-7.89281 6.01015,-8.06002 -0.45654,-0.45653 -8.06651,0.86972 -15.14907,2.64016 -36.92051,9.22905 -63.32234,33.53519 -79.00394,72.73285 -1.47153,3.67822 -1.73805,4.70253 -1.22359,4.70253 0.0734,0 1.60159,-1.03411 3.39592,-2.29801 z m 60.83733,182.57451 c -0.55754,-1.24082 -0.61829,-1.83665 -0.87409,-8.5725 -0.15119,-3.98145 -0.38851,-11.41095 -0.52738,-16.51 -0.13886,-5.09905 -0.36665,-12.07135 -0.50619,-15.494 -0.13955,-3.42265 -0.37217,-10.1092 -0.51694,-14.859 -0.14476,-4.7498 -0.37649,-11.89355 -0.51495,-15.875 -0.13846,-3.98145 -0.42093,-12.954 -0.62772,-19.939 -0.20678,-6.985 -0.49415,-16.30045 -0.63859,-20.701 -0.14444,-4.40055 -0.36817,-11.37285 -0.49716,-15.494 -0.129,-4.12115 -0.42069,-12.92225 -0.64821,-19.558 -0.48221,-14.06373 -0.4191,-18.60301 0.28355,-20.3926 0.71546,-1.82222 2.0956,-3.46463 3.63926,-4.33081 2.74633,-1.54103 6.03756,-0.79377 8.56051,1.94362 1.31004,1.4214 9.73981,11.93214 12.54572,15.64276 0.90833,1.20122 2.85143,3.67501 4.318,5.49731 1.46655,1.82231 4.49527,5.63627 6.73047,8.47547 2.2352,2.8392 4.67114,5.92022 5.41317,6.84672 0.74204,0.92649 2.22062,2.82753 3.28572,4.22453 1.0651,1.397 3.14874,4.0259 4.63032,5.842 1.48156,1.8161 3.14625,3.92856 3.69928,4.69437 0.55303,0.7658 2.55966,3.29535 4.4592,5.62124 1.89951,2.32588 4.10583,5.15428 4.90291,6.28533 0.79708,1.13106 1.99967,2.65915 2.67241,3.39576 0.67274,0.73662 2.23835,2.66844 3.47909,4.29295 1.24074,1.62451 3.3989,4.38714 4.7959,6.13917 1.397,1.75205 3.4544,4.35709 4.572,5.78899 1.1176,1.4319 3.6322,4.61364 5.588,7.07054 1.9558,2.45689 4.75615,5.99871 6.223,7.87072 1.46685,1.87202 3.32786,4.2144 4.1356,5.20528 3.31572,4.06766 6.56994,8.5514 7.22689,9.95731 0.56692,1.21333 0.69949,1.85664 0.70081,3.40134 0.003,1.64267 -0.1033,2.09484 -0.76035,3.28364 -1.38189,2.50035 -4.3068,4.31226 -19.43095,12.03711 -2.16535,1.10596 -5.36575,2.78307 -7.112,3.72689 -1.74625,0.94381 -4.48945,2.37124 -6.096,3.17205 -1.60655,0.80084 -4.80695,2.45705 -7.112,3.68046 -2.30505,1.22344 -7.10565,3.74254 -10.668,5.59798 -3.56235,1.85547 -9.906,5.17076 -14.097,7.36732 -4.191,2.1966 -9.04875,4.73789 -10.795,5.64736 -7.24621,3.77394 -8.78766,4.60891 -9.271,5.02197 -0.5358,0.45786 -10.01361,5.33214 -10.36455,5.33029 -0.11251,0 -0.47418,-0.60114 -0.80373,-1.33457 z m 15.74028,-22.79266 c 1.8161,-1.02279 4.06733,-2.32789 5.00271,-2.90023 0.9354,-0.57234 2.8785,-1.71488 4.318,-2.53901 1.43952,-0.8241 5.36049,-3.12016 8.71329,-5.10237 3.3528,-1.98219 6.7818,-3.98003 7.62,-4.43964 0.8382,-0.45959 3.40995,-1.95006 5.715,-3.31214 2.30505,-1.36207 5.9055,-3.47955 8.001,-4.70548 2.0955,-1.22595 5.2959,-3.10891 7.112,-4.18437 1.8161,-1.07543 4.2164,-2.45039 5.334,-3.05541 1.1176,-0.60503 2.66065,-1.51689 3.429,-2.02634 0.76835,-0.50947 1.88277,-1.19543 2.4765,-1.52436 0.59373,-0.3289 1.0795,-0.73169 1.0795,-0.89507 0,-0.26515 -7.31672,-9.7048 -10.03333,-12.94442 -0.58572,-0.6985 -1.84976,-2.2987 -2.80894,-3.556 -0.95918,-1.2573 -2.3197,-2.97734 -3.02336,-3.82232 -0.70365,-0.84497 -2.19377,-2.70976 -3.31137,-4.14398 -3.41803,-4.38636 -7.2389,-9.23282 -9.906,-12.56491 -1.397,-1.74532 -4.54025,-5.71399 -6.985,-8.81925 -2.44475,-3.10527 -5.15808,-6.5157 -6.0296,-7.57874 -0.87153,-1.06304 -2.63017,-3.3044 -3.90807,-4.9808 -1.2779,-1.6764 -3.14605,-4.0767 -4.15146,-5.334 -6.4745,-8.09656 -10.12825,-12.70567 -11.47709,-14.478 -0.85055,-1.1176 -1.80281,-2.2606 -2.11613,-2.54 l -0.56967,-0.508 0.15576,26.924 c 0.0857,14.8082 0.213,37.3253 0.28297,50.038 0.13562,24.64206 0.35691,41.01849 0.55878,41.35229 0.0679,0.11237 0.37014,0.0459 0.67153,-0.14777 0.30139,-0.19363 2.03388,-1.1889 3.84998,-2.21168 z m -58.22608,-7.23204 c -1.68007,-0.7822 -3.40146,-2.54166 -4.25794,-4.35209 -0.5548,-1.17277 -0.78509,-2.41333 -1.40118,-7.54807 -0.40549,-3.37955 -0.85644,-7.05904 -1.00211,-8.17664 -0.14567,-1.1176 -0.60953,-4.8895 -1.0308,-8.382 -0.42126,-3.4925 -1.10574,-9.15035 -1.52106,-12.573 -0.41532,-3.42265 -1.21845,-10.05205 -1.78474,-14.732 -0.56629,-4.67995 -1.42947,-11.76655 -1.91818,-15.748 -0.4887,-3.98145 -1.16501,-9.525 -1.50291,-12.319 -0.33789,-2.794 -1.02977,-8.45185 -1.5375,-12.573 -1.14412,-9.28665 -1.1809,-11.1796 -0.25398,-13.07415 1.53476,-3.13693 4.80215,-3.47948 7.70103,-0.80739 1.30542,1.2033 2.15109,2.5662 2.84653,4.58753 0.52095,1.51416 0.8261,4.03815 2.41342,19.96201 0.49435,4.95935 1.23498,12.27455 1.64584,16.256 0.41085,3.98145 0.87068,8.4963 1.02184,10.033 0.15116,1.5367 0.50154,4.9657 0.77862,7.62 0.27709,2.6543 0.61229,6.02615 0.74489,7.493 0.1326,1.46685 0.36303,3.81 0.51205,5.207 0.41173,3.85956 1.77459,17.21086 2.03532,19.939 0.12683,1.32715 0.46096,4.64185 0.7425,7.366 0.87342,8.45091 0.9176,9.6693 0.39086,10.7793 -0.4729,0.99657 -1.56917,1.66911 -2.71276,1.66421 -0.31881,-0.003 -1.1782,-0.28113 -1.90974,-0.62171 z"
         id="path171"
         inkscape:connector-curvature="0" />
      <path
         style="fill:#00aad4;stroke-width:0.25400001;fill-opacity:1"
         d="m 534.05494,576.04017 c -0.66003,-1.01186 -0.85656,-2.73421 -1.02166,-8.9535 -0.089,-3.3528 -0.32525,-11.06805 -0.52499,-17.145 -0.44189,-13.44407 -0.59843,-18.23687 -0.76321,-23.368 -0.0695,-2.16535 -0.23657,-7.19455 -0.37117,-11.176 -0.13461,-3.98145 -0.36253,-10.95375 -0.50649,-15.494 -0.57274,-18.06293 -1.03394,-32.51655 -1.28057,-40.132 -1.63274,-50.41575 -1.59439,-48.0025 -0.80298,-50.52218 0.50005,-1.59203 0.81291,-2.10323 2.03544,-3.32576 1.17237,-1.17237 1.69856,-1.50551 2.79247,-1.76793 2.22855,-0.53462 4.28416,0.0625 6.29609,1.82903 0.94405,0.82889 9.391,11.19615 12.66914,15.54931 0.9779,1.29859 3.3243,4.28965 5.21421,6.6468 1.88994,2.35715 4.91889,6.16467 6.731,8.46115 1.81214,2.29648 4.21612,5.32543 5.34221,6.731 1.12608,1.40557 2.68135,3.4132 3.45615,4.4614 0.7748,1.0482 2.53949,3.27958 3.92158,4.95863 1.38207,1.67904 2.96456,3.67892 3.51663,4.44418 0.5521,0.76525 2.44592,3.16302 4.20853,5.32837 1.76261,2.16535 4.19463,5.25145 5.40446,6.858 1.20985,1.60655 2.91645,3.7841 3.79247,4.839 0.87602,1.05491 2.47729,3.05516 3.55839,4.445 1.0811,1.38985 3.00545,3.84145 4.27634,5.448 1.27089,1.60655 5.92011,7.493 10.33161,13.081 4.41149,5.588 8.89426,11.24585 9.9617,12.573 6.08149,7.56105 7.10339,9.32198 7.1137,12.25827 0.008,2.29123 -0.63454,3.60967 -2.66286,5.46372 -1.66954,1.5261 -5.60748,3.73723 -18.54012,10.41019 -3.3528,1.72996 -6.6675,3.46623 -7.366,3.85841 -0.6985,0.39215 -3.61315,1.91531 -6.477,3.38483 -2.86385,1.46952 -5.94995,3.09504 -6.858,3.61226 -0.90805,0.51719 -2.6797,1.43708 -3.937,2.04417 -1.2573,0.60708 -3.25755,1.63413 -4.445,2.28231 -2.39677,1.30833 -10.89221,5.75859 -20.955,10.97704 -8.29173,4.30002 -12.32838,6.48689 -14.03928,7.60578 -0.7366,0.48171 -2.39395,1.36873 -3.683,1.97117 -1.28905,0.60241 -3.06908,1.50899 -3.95562,2.01457 -0.88655,0.50562 -1.71259,0.91928 -1.83564,0.91928 -0.12307,0 -0.3915,-0.25717 -0.59653,-0.5715 z m 14.07707,-21.90582 c 0.76835,-0.45403 2.48285,-1.45078 3.81,-2.21501 4.29748,-2.4747 9.94948,-5.77761 13.589,-7.94111 1.9558,-1.16263 5.00487,-2.95394 6.7757,-3.98071 14.65093,-8.4949 19.80964,-11.50249 21.5453,-12.56111 0.76835,-0.46863 2.96855,-1.74028 4.88932,-2.82591 5.43611,-3.07248 9.70717,-5.77573 9.78792,-6.19506 0.0858,-0.44569 -4.54467,-6.44121 -14.6633,-18.98581 -1.05542,-1.30847 -2.77619,-3.49408 -3.82394,-4.8569 -2.14572,-2.79099 -5.69547,-7.26118 -8.05368,-10.14198 -0.86716,-1.05934 -2.6257,-3.29768 -3.90784,-4.97408 -2.14168,-2.80025 -5.92176,-7.57318 -11.03993,-13.93959 -1.10965,-1.38027 -2.96345,-3.72342 -4.11955,-5.207 -3.33804,-4.28355 -5.77332,-7.37239 -10.63751,-13.49241 -2.49826,-3.14325 -5.32269,-6.72137 -6.27652,-7.95138 -1.14103,-1.47142 -1.87784,-2.2085 -2.1541,-2.15488 -0.38385,0.0745 -0.41715,1.09441 -0.3882,11.88838 0.16239,60.53444 0.54965,106.68614 0.89874,107.10679 0.28673,0.34547 1.0912,0.01 3.76859,-1.57223 z m -57.023,-8.85566 c -1.40166,-0.65563 -3.12247,-2.37409 -3.88956,-3.88427 -0.64011,-1.2602 -0.92037,-2.75039 -1.56918,-8.34375 -0.29169,-2.5146 -0.92183,-7.7724 -1.40033,-11.684 -0.47849,-3.9116 -1.3382,-10.9982 -1.91046,-15.748 -0.57225,-4.7498 -1.49091,-12.35075 -2.04145,-16.891 -0.55054,-4.54025 -1.12199,-9.2837 -1.26987,-10.541 -0.1479,-1.2573 -0.48885,-4.0005 -0.75768,-6.096 -0.26883,-2.0955 -0.77852,-6.26745 -1.13265,-9.271 -0.35412,-3.00355 -1.1088,-9.2329 -1.67707,-13.843 -1.29588,-10.51291 -1.20083,-11.95011 0.91311,-13.80617 0.76102,-0.66818 1.11773,-0.79883 2.1811,-0.79883 2.91471,0 5.67015,2.77189 6.70503,6.74505 0.33226,1.27563 1.1409,8.5714 2.68702,24.24295 0.28254,2.86385 0.68339,6.75005 0.89079,8.636 0.2074,1.88595 0.59802,5.715 0.86804,8.509 0.27002,2.794 0.7862,7.99465 1.14706,11.557 0.36086,3.56235 1.10881,10.99185 1.66212,16.51 0.55331,5.51815 1.1206,11.0617 1.26064,12.319 0.14004,1.2573 0.53942,5.1435 0.88751,8.636 0.34809,3.4925 0.6935,6.75005 0.76759,7.239 0.0741,0.48895 0.15099,1.88039 0.17092,3.09207 0.0401,2.43672 -0.31048,3.33471 -1.4745,3.77726 -0.97373,0.37023 -1.63071,0.29266 -3.01818,-0.35631 z"
         id="path169"
         inkscape:connector-curvature="0" />
      <path
         inkscape:connector-curvature="0"
         id="path10"
         d="m 539.06388,687.86431 c -1.996,-0.52314 -5.0167,-1.77828 -6.43661,-2.6745 -2.05651,-1.29804 -3.85346,-4.29222 -4.32199,-7.20156 -0.39785,-2.4704 -0.12152,-2.8129 5.09473,-6.31462 4.49857,-3.01993 9.8337,-8.98636 13.9505,-15.60129 5.34052,-8.58123 9.78476,-18.00326 13.05468,-27.67667 1.28597,-3.80429 1.34071,-3.90881 2.33373,-4.45659 1.13837,-0.62796 17.53285,-5.41741 18.544,-5.41741 0.35588,0 0.70513,0.15136 0.77612,0.33637 0.18088,0.4714 -2.10426,7.24685 -3.82719,11.34763 -5.38554,12.81821 -13.43073,25.60973 -25.13183,39.95852 -0.7766,0.95235 -1.41201,1.83817 -1.41201,1.9685 0,0.41912 1.61478,0.25385 3.84952,-0.39403 10.73265,-3.1115 26.60831,-12.5762 39.58448,-23.59935 3.94335,-3.34982 10.69988,-10.24346 13.6461,-13.92301 6.26491,-7.82431 9.32342,-13.43644 14.12331,-25.91511 5.3243,-13.84203 10.71093,-24.52695 17.44838,-34.61052 5.74154,-8.5931 11.88855,-15.9512 16.83004,-20.14596 5.49232,-4.66232 12.57994,-8.31817 19.56768,-10.09312 3.52247,-0.89477 3.47449,-0.87544 3.47449,-1.39878 0,-0.27681 -0.94468,-1.67259 -2.09931,-3.10172 -9.16272,-11.34118 -12.10729,-23.44382 -9.17936,-37.72865 2.19731,-10.72024 7.35066,-21.23401 16.77863,-34.2314 4.93202,-6.79928 6.337,-8.87682 8.22871,-12.16791 7.88249,-13.71333 10.04918,-28.45502 5.94109,-40.42187 -1.32997,-3.87414 -4.64876,-9.84072 -5.39366,-9.69678 -0.26173,0.0506 -0.84161,1.39995 -1.72461,4.01319 -4.78117,14.14987 -17.13456,30.58609 -32.7848,43.62028 -1.41917,1.18195 -2.64457,2.39466 -2.72308,2.6949 -0.0785,0.30025 0.36502,2.37514 0.98562,4.61086 7.96488,28.69318 5.00509,59.1217 -8.36331,85.97996 -5.97192,11.99815 -13.07465,21.85043 -22.61486,31.36943 -6.24048,6.22661 -11.46203,10.4932 -18.80606,15.3667 -3.81958,2.53466 -5.8453,3.56418 -9.41664,4.78566 -6.196,2.11923 -44.89791,13.30937 -49.63836,14.35232 -4.01742,0.88385 -6.61676,1.02393 -12.81042,0.6903 -15.03087,-0.80963 -28.69217,-3.95519 -42.12572,-9.69968 -34.9161,-14.93085 -60.65791,-45.53105 -69.63422,-82.77662 -3.74666,-15.5461 -4.28153,-32.68474 -1.51393,-48.51011 0.95969,-5.4876 1.57722,-7.91815 2.17282,-8.55214 0.35093,-0.37355 2.56662,-1.23944 6.67235,-2.60756 3.38083,-1.12656 6.34318,-2.0483 6.58301,-2.0483 0.76508,0 0.75396,0.71353 -0.0546,3.50099 -1.75747,6.05893 -3.09268,12.8231 -3.89659,19.74001 -0.50619,4.35532 -0.42215,17.65677 0.1404,22.22247 1.68113,13.64421 5.17497,25.30398 11.07489,36.95953 5.54331,10.95106 12.26704,20.08104 21.15217,28.72194 8.09851,7.8759 16.46398,13.80759 26.61382,18.87093 11.60612,5.78983 23.12903,9.25045 36.068,10.83213 4.64149,0.56739 15.41592,0.77778 20.21522,0.39472 30.36393,-2.42339 57.8686,-17.03804 76.56983,-40.68552 12.84427,-16.24144 20.70176,-35.897 22.72492,-56.84649 0.43734,-4.52839 0.49573,-14.46454 0.11133,-18.94571 -2.79999,-32.64309 -20.38835,-62.46511 -47.4853,-80.51388 -24.28253,-16.17413 -53.57023,-21.81798 -82.2597,-15.85174 -27.0123,5.61746 -51.49958,22.13537 -66.98476,45.18462 -1.26703,1.88595 -2.72445,4.13055 -3.23869,4.98799 -0.51425,0.85744 -1.24376,1.7613 -1.62114,2.00857 -0.78577,0.51486 -13.07421,4.60764 -14.53621,4.84142 -0.555,0.0887 -1.03565,0.0448 -1.12704,-0.10308 -0.35887,-0.58067 3.56054,-8.61886 6.96042,-14.2749 2.30253,-3.83048 5.2344,-8.07657 8.04747,-11.65476 1.03072,-1.31107 2.02508,-2.68267 2.20968,-3.048 0.1846,-0.36533 0.9844,-3.06454 1.77732,-5.99824 0.79293,-2.9337 2.34133,-8.02684 3.44089,-11.3181 15.42986,-46.18536 42.99175,-75.74828 82.78874,-88.79934 11.82558,-3.87808 28.89684,-6.87215 40.03202,-7.02106 2.68653,-0.0359 3.19862,0.028 4.318,0.53938 4.2659,1.94868 5.42384,6.62078 2.62951,10.6098 -0.55392,0.79077 -3.17104,3.98694 -5.81579,7.10261 -10.47181,12.33637 -21.51471,26.55343 -27.7091,35.67371 -5.01943,7.39035 -9.26349,14.79747 -8.94864,15.61796 0.0927,0.24167 1.08786,0.37909 3.60307,0.49758 18.76273,0.8839 34.81365,4.945 50.43828,12.76154 23.27496,11.6438 41.934,30.17863 53.50741,53.1512 0.85806,1.70324 1.71343,3.15563 1.90079,3.22752 0.53101,0.20377 0.84993,-0.0528 5.104,-4.10583 12.17434,-11.59905 20.26191,-22.65921 24.05438,-32.89564 1.83683,-4.95788 1.87559,-7.8815 0.16353,-12.33227 -1.2716,-3.30572 -1.35461,-4.52819 -0.43071,-6.34357 1.21059,-2.37866 3.14574,-3.53327 5.91215,-3.52745 2.31176,0.005 3.65118,0.65095 7.22412,3.48473 7.24949,5.74969 12.61105,12.13417 16.38351,19.50928 4.26529,8.33861 6.2311,16.70336 6.23519,26.5315 0.003,7.56373 -0.89403,13.49725 -3.07071,20.30845 -2.31633,7.24822 -5.04667,12.61257 -10.7949,21.209 -5.52732,8.26605 -7.29295,11.21356 -9.77351,16.31578 -5.78851,11.9062 -7.14639,22.51721 -4.06027,31.72865 2.36891,7.07073 7.53636,14.25605 15.21468,21.15594 3.97233,3.56961 9.34169,7.80113 13.42451,10.57966 1.85102,1.25971 3.3655,2.37116 3.3655,2.46989 0,0.0988 -3.17183,0.182 -7.0485,0.18502 -7.33631,0.006 -11.70849,0.3477 -17.9258,1.40215 -19.75124,3.34981 -31.34311,11.9267 -41.8153,30.93946 -3.45156,6.26646 -6.33047,13.18288 -10.01855,24.06897 -1.3207,3.89831 -2.96596,8.42033 -3.65613,10.0489 -7.02625,16.57962 -22.76094,31.77464 -49.45672,47.76043 -12.53904,7.50855 -26.52857,14.38712 -35.22302,17.31897 -6.49348,2.18965 -11.99,2.75948 -16.13611,1.67282 z M 472.6974,393.21166 c 11.35578,-7.99886 24.94395,-14.32649 38.64726,-17.99694 3.1925,-0.85511 10.62739,-2.37534 13.85605,-2.83317 1.24298,-0.17626 2.21687,-0.45167 2.40692,-0.68067 0.17557,-0.21154 0.67981,-1.48478 1.12054,-2.82942 2.9892,-9.11986 12.87297,-24.09991 29.93976,-45.37731 4.14871,-5.17226 6.17736,-7.89281 6.01015,-8.06002 -0.45654,-0.45653 -8.06651,0.86972 -15.14907,2.64016 -36.92051,9.22905 -63.32234,33.53519 -79.00394,72.73285 -1.47153,3.67822 -1.73805,4.70253 -1.22359,4.70253 0.0734,0 1.60159,-1.03411 3.39592,-2.29801 z m 60.83733,182.57451 c -0.55754,-1.24082 -0.61829,-1.83665 -0.87409,-8.5725 -0.15119,-3.98145 -0.38851,-11.41095 -0.52738,-16.51 -0.13886,-5.09905 -0.36665,-12.07135 -0.50619,-15.494 -0.13955,-3.42265 -0.37217,-10.1092 -0.51694,-14.859 -0.14476,-4.7498 -0.37649,-11.89355 -0.51495,-15.875 -0.13846,-3.98145 -0.42093,-12.954 -0.62772,-19.939 -0.20678,-6.985 -0.49415,-16.30045 -0.63859,-20.701 -0.14444,-4.40055 -0.36817,-11.37285 -0.49716,-15.494 -0.129,-4.12115 -0.42069,-12.92225 -0.64821,-19.558 -0.48221,-14.06373 -0.4191,-18.60301 0.28355,-20.3926 0.71546,-1.82222 2.0956,-3.46463 3.63926,-4.33081 2.74633,-1.54103 6.03756,-0.79377 8.56051,1.94362 1.31004,1.4214 9.73981,11.93214 12.54572,15.64276 0.90833,1.20122 2.85143,3.67501 4.318,5.49731 1.46655,1.82231 4.49527,5.63627 6.73047,8.47547 2.2352,2.8392 4.67114,5.92022 5.41317,6.84672 0.74204,0.92649 2.22062,2.82753 3.28572,4.22453 1.0651,1.397 3.14874,4.0259 4.63032,5.842 1.48156,1.8161 3.14625,3.92856 3.69928,4.69437 0.55303,0.7658 2.55966,3.29535 4.4592,5.62124 1.89951,2.32588 4.10583,5.15428 4.90291,6.28533 0.79708,1.13106 1.99967,2.65915 2.67241,3.39576 0.67274,0.73662 2.23835,2.66844 3.47909,4.29295 1.24074,1.62451 3.3989,4.38714 4.7959,6.13917 1.397,1.75205 3.4544,4.35709 4.572,5.78899 1.1176,1.4319 3.6322,4.61364 5.588,7.07054 1.9558,2.45689 4.75615,5.99871 6.223,7.87072 1.46685,1.87202 3.32786,4.2144 4.1356,5.20528 3.31572,4.06766 6.56994,8.5514 7.22689,9.95731 0.56692,1.21333 0.69949,1.85664 0.70081,3.40134 0.003,1.64267 -0.1033,2.09484 -0.76035,3.28364 -1.38189,2.50035 -4.3068,4.31226 -19.43095,12.03711 -2.16535,1.10596 -5.36575,2.78307 -7.112,3.72689 -1.74625,0.94381 -4.48945,2.37124 -6.096,3.17205 -1.60655,0.80084 -4.80695,2.45705 -7.112,3.68046 -2.30505,1.22344 -7.10565,3.74254 -10.668,5.59798 -3.56235,1.85547 -9.906,5.17076 -14.097,7.36732 -4.191,2.1966 -9.04875,4.73789 -10.795,5.64736 -7.24621,3.77394 -8.78766,4.60891 -9.271,5.02197 -0.5358,0.45786 -10.01361,5.33214 -10.36455,5.33029 -0.11251,0 -0.47418,-0.60114 -0.80373,-1.33457 z m 15.74028,-22.79266 c 1.8161,-1.02279 4.06733,-2.32789 5.00271,-2.90023 0.9354,-0.57234 2.8785,-1.71488 4.318,-2.53901 1.43952,-0.8241 5.36049,-3.12016 8.71329,-5.10237 3.3528,-1.98219 6.7818,-3.98003 7.62,-4.43964 0.8382,-0.45959 3.40995,-1.95006 5.715,-3.31214 2.30505,-1.36207 5.9055,-3.47955 8.001,-4.70548 2.0955,-1.22595 5.2959,-3.10891 7.112,-4.18437 1.8161,-1.07543 4.2164,-2.45039 5.334,-3.05541 1.1176,-0.60503 2.66065,-1.51689 3.429,-2.02634 0.76835,-0.50947 1.88277,-1.19543 2.4765,-1.52436 0.59373,-0.3289 1.0795,-0.73169 1.0795,-0.89507 0,-0.26515 -7.31672,-9.7048 -10.03333,-12.94442 -0.58572,-0.6985 -1.84976,-2.2987 -2.80894,-3.556 -0.95918,-1.2573 -2.3197,-2.97734 -3.02336,-3.82232 -0.70365,-0.84497 -2.19377,-2.70976 -3.31137,-4.14398 -3.41803,-4.38636 -7.2389,-9.23282 -9.906,-12.56491 -1.397,-1.74532 -4.54025,-5.71399 -6.985,-8.81925 -2.44475,-3.10527 -5.15808,-6.5157 -6.0296,-7.57874 -0.87153,-1.06304 -2.63017,-3.3044 -3.90807,-4.9808 -1.2779,-1.6764 -3.14605,-4.0767 -4.15146,-5.334 -6.4745,-8.09656 -10.12825,-12.70567 -11.47709,-14.478 -0.85055,-1.1176 -1.80281,-2.2606 -2.11613,-2.54 l -0.56967,-0.508 0.15576,26.924 c 0.0857,14.8082 0.213,37.3253 0.28297,50.038 0.13562,24.64206 0.35691,41.01849 0.55878,41.35229 0.0679,0.11237 0.37014,0.0459 0.67153,-0.14777 0.30139,-0.19363 2.03388,-1.1889 3.84998,-2.21168 z m -58.22608,-7.23204 c -1.68007,-0.7822 -3.40146,-2.54166 -4.25794,-4.35209 -0.5548,-1.17277 -0.78509,-2.41333 -1.40118,-7.54807 -0.40549,-3.37955 -0.85644,-7.05904 -1.00211,-8.17664 -0.14567,-1.1176 -0.60953,-4.8895 -1.0308,-8.382 -0.42126,-3.4925 -1.10574,-9.15035 -1.52106,-12.573 -0.41532,-3.42265 -1.21845,-10.05205 -1.78474,-14.732 -0.56629,-4.67995 -1.42947,-11.76655 -1.91818,-15.748 -0.4887,-3.98145 -1.16501,-9.525 -1.50291,-12.319 -0.33789,-2.794 -1.02977,-8.45185 -1.5375,-12.573 -1.14412,-9.28665 -1.1809,-11.1796 -0.25398,-13.07415 1.53476,-3.13693 4.80215,-3.47948 7.70103,-0.80739 1.30542,1.2033 2.15109,2.5662 2.84653,4.58753 0.52095,1.51416 0.8261,4.03815 2.41342,19.96201 0.49435,4.95935 1.23498,12.27455 1.64584,16.256 0.41085,3.98145 0.87068,8.4963 1.02184,10.033 0.15116,1.5367 0.50154,4.9657 0.77862,7.62 0.27709,2.6543 0.61229,6.02615 0.74489,7.493 0.1326,1.46685 0.36303,3.81 0.51205,5.207 0.41173,3.85956 1.77459,17.21086 2.03532,19.939 0.12683,1.32715 0.46096,4.64185 0.7425,7.366 0.87342,8.45091 0.9176,9.6693 0.39086,10.7793 -0.4729,0.99657 -1.56917,1.66911 -2.71276,1.66421 -0.31881,-0.003 -1.1782,-0.28113 -1.90974,-0.62171 z"
         style="fill:#00aad4;stroke-width:0.25400001;fill-opacity:1" />
      <path
         inkscape:connector-curvature="0"
         id="path12"
         d="m 277.40911,546.936 c -0.66003,-1.01186 -0.85656,-2.73421 -1.02166,-8.9535 -0.089,-3.3528 -0.32525,-11.06805 -0.52499,-17.145 -0.44189,-13.44407 -0.59843,-18.23687 -0.76321,-23.368 -0.0695,-2.16535 -0.23657,-7.19455 -0.37117,-11.176 -0.13461,-3.98145 -0.36253,-10.95375 -0.50649,-15.494 -0.57274,-18.06293 -1.03394,-32.51655 -1.28057,-40.132 -1.63274,-50.41575 -1.59439,-48.0025 -0.80298,-50.52218 0.50005,-1.59203 0.81291,-2.10323 2.03544,-3.32576 1.17237,-1.17237 1.69856,-1.50551 2.79247,-1.76793 2.22855,-0.53462 4.28416,0.0625 6.29609,1.82903 0.94405,0.82889 9.391,11.19615 12.66914,15.54931 0.9779,1.29859 3.3243,4.28965 5.21421,6.6468 1.88994,2.35715 4.91889,6.16467 6.731,8.46115 1.81214,2.29648 4.21612,5.32543 5.34221,6.731 1.12608,1.40557 2.68135,3.4132 3.45615,4.4614 0.7748,1.0482 2.53949,3.27958 3.92158,4.95863 1.38207,1.67904 2.96456,3.67892 3.51663,4.44418 0.5521,0.76525 2.44592,3.16302 4.20853,5.32837 1.76261,2.16535 4.19463,5.25145 5.40446,6.858 1.20985,1.60655 2.91645,3.7841 3.79247,4.839 0.87602,1.05491 2.47729,3.05516 3.55839,4.445 1.0811,1.38985 3.00545,3.84145 4.27634,5.448 1.27089,1.60655 5.92011,7.493 10.33161,13.081 4.41149,5.588 8.89426,11.24585 9.9617,12.573 6.08149,7.56105 7.10339,9.32198 7.1137,12.25827 0.008,2.29123 -0.63454,3.60967 -2.66286,5.46372 -1.66954,1.5261 -5.60748,3.73723 -18.54012,10.41019 -3.3528,1.72996 -6.6675,3.46623 -7.366,3.85841 -0.6985,0.39215 -3.61315,1.91531 -6.477,3.38483 -2.86385,1.46952 -5.94995,3.09504 -6.858,3.61226 -0.90805,0.51719 -2.6797,1.43708 -3.937,2.04417 -1.2573,0.60708 -3.25755,1.63413 -4.445,2.28231 -2.39677,1.30833 -10.89221,5.75859 -20.955,10.97704 -8.29173,4.30002 -12.32838,6.48689 -14.03928,7.60578 -0.7366,0.48171 -2.39395,1.36873 -3.683,1.97117 -1.28905,0.60241 -3.06908,1.50899 -3.95562,2.01457 -0.88655,0.50562 -1.71259,0.91928 -1.83564,0.91928 -0.12307,0 -0.3915,-0.25717 -0.59653,-0.5715 z m 14.07707,-21.90582 c 0.76835,-0.45403 2.48285,-1.45078 3.81,-2.21501 4.29748,-2.4747 9.94948,-5.77761 13.589,-7.94111 1.9558,-1.16263 5.00487,-2.95394 6.7757,-3.98071 14.65093,-8.4949 19.80964,-11.50249 21.5453,-12.56111 0.76835,-0.46863 2.96855,-1.74028 4.88932,-2.82591 5.43611,-3.07248 9.70717,-5.77573 9.78792,-6.19506 0.0858,-0.44569 -4.54467,-6.44121 -14.6633,-18.98581 -1.05542,-1.30847 -2.77619,-3.49408 -3.82394,-4.8569 -2.14572,-2.79099 -5.69547,-7.26118 -8.05368,-10.14198 -0.86716,-1.05934 -2.6257,-3.29768 -3.90784,-4.97408 -2.14168,-2.80025 -5.92176,-7.57318 -11.03993,-13.93959 -1.10965,-1.38027 -2.96345,-3.72342 -4.11955,-5.207 -3.33804,-4.28355 -5.77332,-7.37239 -10.63751,-13.49241 -2.49826,-3.14325 -5.32269,-6.72137 -6.27652,-7.95138 -1.14103,-1.47142 -1.87784,-2.2085 -2.1541,-2.15488 -0.38385,0.0745 -0.41715,1.09441 -0.3882,11.88838 0.16239,60.53444 0.54965,106.68614 0.89874,107.10679 0.28673,0.34547 1.0912,0.01 3.76859,-1.57223 z m -57.023,-8.85566 c -1.40166,-0.65563 -3.12247,-2.37409 -3.88956,-3.88427 -0.64011,-1.2602 -0.92037,-2.75039 -1.56918,-8.34375 -0.29169,-2.5146 -0.92183,-7.7724 -1.40033,-11.684 -0.47849,-3.9116 -1.3382,-10.9982 -1.91046,-15.748 -0.57225,-4.7498 -1.49091,-12.35075 -2.04145,-16.891 -0.55054,-4.54025 -1.12199,-9.2837 -1.26987,-10.541 -0.1479,-1.2573 -0.48885,-4.0005 -0.75768,-6.096 -0.26883,-2.0955 -0.77852,-6.26745 -1.13265,-9.271 -0.35412,-3.00355 -1.1088,-9.2329 -1.67707,-13.843 -1.29588,-10.51291 -1.20083,-11.95011 0.91311,-13.80617 0.76102,-0.66818 1.11773,-0.79883 2.1811,-0.79883 2.91471,0 5.67015,2.77189 6.70503,6.74505 0.33226,1.27563 1.1409,8.5714 2.68702,24.24295 0.28254,2.86385 0.68339,6.75005 0.89079,8.636 0.2074,1.88595 0.59802,5.715 0.86804,8.509 0.27002,2.794 0.7862,7.99465 1.14706,11.557 0.36086,3.56235 1.10881,10.99185 1.66212,16.51 0.55331,5.51815 1.1206,11.0617 1.26064,12.319 0.14004,1.2573 0.53942,5.1435 0.88751,8.636 0.34809,3.4925 0.6935,6.75005 0.76759,7.239 0.0741,0.48895 0.15099,1.88039 0.17092,3.09207 0.0401,2.43672 -0.31048,3.33471 -1.4745,3.77726 -0.97373,0.37023 -1.63071,0.29266 -3.01818,-0.35631 z"
         style="fill:#00aad4;stroke-width:0.25400001;fill-opacity:1" />
    </g>
  </g>
</svg>
